<?xml version="1.0" encoding="UTF-8"?>
<svg width="800px" height="295px" viewBox="0 0 800 295" version="1.1" xmlns="http://www.w3.org/2000/svg" xmlns:xlink="http://www.w3.org/1999/xlink">
    <title>SOL-Logo-Kleur</title>
    <defs>
        <path d="M259.687662,147.292592 C259.687662,272.47867 314.341196,294.570684 399.60925,294.570684 L399.60925,294.570684 C485.267303,294.570684 540.306338,271.70117 540.306338,146.506592 L540.306338,146.506592 C540.306338,21.3200133 486.047304,0 400.38775,0 L400.38775,0 C315.114197,0 259.687662,22.0890138 259.687662,147.292592 L259.687662,147.292592 Z M339.143212,157.754099 L339.143212,135.266585 C339.143212,81.3985509 352.32522,64.3440402 399.60925,64.3440402 L399.60925,64.3440402 C447.28778,64.3440402 460.851788,82.1715514 460.851788,136.048085 L460.851788,136.048085 L460.851788,158.522599 C460.851788,212.401633 448.05628,231.781645 400.38775,231.781645 L400.38775,231.781645 C353.098221,231.781645 339.143212,211.633132 339.143212,157.754099 L339.143212,157.754099 Z M-1.13686909e-13,85.2650533 C-1.13686909e-13,151.553095 18.2180114,163.566102 100.775063,178.293611 L100.775063,178.293611 C145.351591,186.432117 150.776594,187.986617 150.776594,206.977629 L150.776594,206.977629 C150.776594,226.749142 144.57009,230.615144 108.526568,230.615144 L108.526568,230.615144 C82.5570516,230.615144 22.0910138,223.25164 12.790008,220.928638 L12.790008,220.928638 L1.16700073,283.717177 C13.1815082,286.434679 57.7490361,293.795684 107.750567,293.795684 L107.750567,293.795684 C193.023621,293.795684 228.293143,272.09867 228.293143,207.75813 L228.293143,207.75813 C228.293143,139.532587 209.692131,130.232581 121.319576,114.347571 L121.319576,114.347571 C81.7840511,107.368067 76.3590477,106.198066 76.3590477,86.8180543 L76.3590477,86.8180543 C76.3590477,71.3190446 81.7840511,65.5045409 109.308068,65.5045409 L109.308068,65.5045409 C143.80159,65.5045409 179.842112,70.9305443 203.485627,74.4175465 L203.485627,74.4175465 L215.120134,11.247507 C200.772125,6.59000412 142.636589,0.773000483 109.691069,0.773000483 L109.691069,0.773000483 C41.4710259,0.773000483 -1.13686909e-13,20.1555126 -1.13686909e-13,85.2650533 L-1.13686909e-13,85.2650533 Z M595.733872,4.65200291 L595.733872,289.924181 L800,289.924181 L800,226.352141 L671.69892,226.352141 L671.69892,4.65200291 L595.733872,4.65200291 Z" id="path-1"></path>
        <path d="M259.687662,147.292592 C259.687662,272.47867 314.341196,294.570684 399.60925,294.570684 L399.60925,294.570684 C485.267303,294.570684 540.306338,271.70117 540.306338,146.506592 L540.306338,146.506592 C540.306338,21.3200133 486.047304,0 400.38775,0 L400.38775,0 C315.114197,0 259.687662,22.0890138 259.687662,147.292592 L259.687662,147.292592 Z M339.143212,157.754099 L339.143212,135.266585 C339.143212,81.3985509 352.32522,64.3440402 399.60925,64.3440402 L399.60925,64.3440402 C447.28778,64.3440402 460.851788,82.1715514 460.851788,136.048085 L460.851788,136.048085 L460.851788,158.522599 C460.851788,212.401633 448.05628,231.781645 400.38775,231.781645 L400.38775,231.781645 C353.098221,231.781645 339.143212,211.633132 339.143212,157.754099 L339.143212,157.754099 Z M-1.13686909e-13,85.2650533 C-1.13686909e-13,151.553095 18.2180114,163.566102 100.775063,178.293611 L100.775063,178.293611 C145.351591,186.432117 150.776594,187.986617 150.776594,206.977629 L150.776594,206.977629 C150.776594,226.749142 144.57009,230.615144 108.526568,230.615144 L108.526568,230.615144 C82.5570516,230.615144 22.0910138,223.25164 12.790008,220.928638 L12.790008,220.928638 L1.16700073,283.717177 C13.1815082,286.434679 57.7490361,293.795684 107.750567,293.795684 L107.750567,293.795684 C193.023621,293.795684 228.293143,272.09867 228.293143,207.75813 L228.293143,207.75813 C228.293143,139.532587 209.692131,130.232581 121.319576,114.347571 L121.319576,114.347571 C81.7840511,107.368067 76.3590477,106.198066 76.3590477,86.8180543 L76.3590477,86.8180543 C76.3590477,71.3190446 81.7840511,65.5045409 109.308068,65.5045409 L109.308068,65.5045409 C143.80159,65.5045409 179.842112,70.9305443 203.485627,74.4175465 L203.485627,74.4175465 L215.120134,11.247507 C200.772125,6.59000412 142.636589,0.773000483 109.691069,0.773000483 L109.691069,0.773000483 C41.4710259,0.773000483 -1.13686909e-13,20.1555126 -1.13686909e-13,85.2650533 L-1.13686909e-13,85.2650533 Z M595.733872,4.65200291 L595.733872,289.924181 L800,289.924181 L800,226.352141 L671.69892,226.352141 L671.69892,4.65200291 L595.733872,4.65200291 Z" id="path-3"></path>
        <path d="M259.687662,147.292592 C259.687662,272.47867 314.341196,294.570684 399.60925,294.570684 L399.60925,294.570684 C485.267303,294.570684 540.306338,271.70117 540.306338,146.506592 L540.306338,146.506592 C540.306338,21.3200133 486.047304,0 400.38775,0 L400.38775,0 C315.114197,0 259.687662,22.0890138 259.687662,147.292592 L259.687662,147.292592 Z M339.143212,157.754099 L339.143212,135.266585 C339.143212,81.3985509 352.32522,64.3440402 399.60925,64.3440402 L399.60925,64.3440402 C447.28778,64.3440402 460.851788,82.1715514 460.851788,136.048085 L460.851788,136.048085 L460.851788,158.522599 C460.851788,212.401633 448.05628,231.781645 400.38775,231.781645 L400.38775,231.781645 C353.098221,231.781645 339.143212,211.633132 339.143212,157.754099 L339.143212,157.754099 Z M-1.13686909e-13,85.2650533 C-1.13686909e-13,151.553095 18.2180114,163.566102 100.775063,178.293611 L100.775063,178.293611 C145.351591,186.432117 150.776594,187.986617 150.776594,206.977629 L150.776594,206.977629 C150.776594,226.749142 144.57009,230.615144 108.526568,230.615144 L108.526568,230.615144 C82.5570516,230.615144 22.0910138,223.25164 12.790008,220.928638 L12.790008,220.928638 L1.16700073,283.717177 C13.1815082,286.434679 57.7490361,293.795684 107.750567,293.795684 L107.750567,293.795684 C193.023621,293.795684 228.293143,272.09867 228.293143,207.75813 L228.293143,207.75813 C228.293143,139.532587 209.692131,130.232581 121.319576,114.347571 L121.319576,114.347571 C81.7840511,107.368067 76.3590477,106.198066 76.3590477,86.8180543 L76.3590477,86.8180543 C76.3590477,71.3190446 81.7840511,65.5045409 109.308068,65.5045409 L109.308068,65.5045409 C143.80159,65.5045409 179.842112,70.9305443 203.485627,74.4175465 L203.485627,74.4175465 L215.120134,11.247507 C200.772125,6.59000412 142.636589,0.773000483 109.691069,0.773000483 L109.691069,0.773000483 C41.4710259,0.773000483 -1.13686909e-13,20.1555126 -1.13686909e-13,85.2650533 L-1.13686909e-13,85.2650533 Z M595.733872,4.65200291 L595.733872,289.924181 L800,289.924181 L800,226.352141 L671.69892,226.352141 L671.69892,4.65200291 L595.733872,4.65200291 Z" id="path-5"></path>
        <path d="M259.687662,147.292592 C259.687662,272.47867 314.341196,294.570684 399.60925,294.570684 L399.60925,294.570684 C485.267303,294.570684 540.306338,271.70117 540.306338,146.506592 L540.306338,146.506592 C540.306338,21.3200133 486.047304,0 400.38775,0 L400.38775,0 C315.114197,0 259.687662,22.0890138 259.687662,147.292592 L259.687662,147.292592 Z M339.143212,157.754099 L339.143212,135.266585 C339.143212,81.3985509 352.32522,64.3440402 399.60925,64.3440402 L399.60925,64.3440402 C447.28778,64.3440402 460.851788,82.1715514 460.851788,136.048085 L460.851788,136.048085 L460.851788,158.522599 C460.851788,212.401633 448.05628,231.781645 400.38775,231.781645 L400.38775,231.781645 C353.098221,231.781645 339.143212,211.633132 339.143212,157.754099 L339.143212,157.754099 Z M-1.13686909e-13,85.2650533 C-1.13686909e-13,151.553095 18.2180114,163.566102 100.775063,178.293611 L100.775063,178.293611 C145.351591,186.432117 150.776594,187.986617 150.776594,206.977629 L150.776594,206.977629 C150.776594,226.749142 144.57009,230.615144 108.526568,230.615144 L108.526568,230.615144 C82.5570516,230.615144 22.0910138,223.25164 12.790008,220.928638 L12.790008,220.928638 L1.16700073,283.717177 C13.1815082,286.434679 57.7490361,293.795684 107.750567,293.795684 L107.750567,293.795684 C193.023621,293.795684 228.293143,272.09867 228.293143,207.75813 L228.293143,207.75813 C228.293143,139.532587 209.692131,130.232581 121.319576,114.347571 L121.319576,114.347571 C81.7840511,107.368067 76.3590477,106.198066 76.3590477,86.8180543 L76.3590477,86.8180543 C76.3590477,71.3190446 81.7840511,65.5045409 109.308068,65.5045409 L109.308068,65.5045409 C143.80159,65.5045409 179.842112,70.9305443 203.485627,74.4175465 L203.485627,74.4175465 L215.120134,11.247507 C200.772125,6.59000412 142.636589,0.773000483 109.691069,0.773000483 L109.691069,0.773000483 C41.4710259,0.773000483 -1.13686909e-13,20.1555126 -1.13686909e-13,85.2650533 L-1.13686909e-13,85.2650533 Z M595.733872,4.65200291 L595.733872,289.924181 L800,289.924181 L800,226.352141 L671.69892,226.352141 L671.69892,4.65200291 L595.733872,4.65200291 Z" id="path-7"></path>
        <path d="M259.687662,147.292592 C259.687662,272.47867 314.341196,294.570684 399.60925,294.570684 L399.60925,294.570684 C485.267303,294.570684 540.306338,271.70117 540.306338,146.506592 L540.306338,146.506592 C540.306338,21.3200133 486.047304,0 400.38775,0 L400.38775,0 C315.114197,0 259.687662,22.0890138 259.687662,147.292592 L259.687662,147.292592 Z M339.143212,157.754099 L339.143212,135.266585 C339.143212,81.3985509 352.32522,64.3440402 399.60925,64.3440402 L399.60925,64.3440402 C447.28778,64.3440402 460.851788,82.1715514 460.851788,136.048085 L460.851788,136.048085 L460.851788,158.522599 C460.851788,212.401633 448.05628,231.781645 400.38775,231.781645 L400.38775,231.781645 C353.098221,231.781645 339.143212,211.633132 339.143212,157.754099 L339.143212,157.754099 Z M-1.13686909e-13,85.2650533 C-1.13686909e-13,151.553095 18.2180114,163.566102 100.775063,178.293611 L100.775063,178.293611 C145.351591,186.432117 150.776594,187.986617 150.776594,206.977629 L150.776594,206.977629 C150.776594,226.749142 144.57009,230.615144 108.526568,230.615144 L108.526568,230.615144 C82.5570516,230.615144 22.0910138,223.25164 12.790008,220.928638 L12.790008,220.928638 L1.16700073,283.717177 C13.1815082,286.434679 57.7490361,293.795684 107.750567,293.795684 L107.750567,293.795684 C193.023621,293.795684 228.293143,272.09867 228.293143,207.75813 L228.293143,207.75813 C228.293143,139.532587 209.692131,130.232581 121.319576,114.347571 L121.319576,114.347571 C81.7840511,107.368067 76.3590477,106.198066 76.3590477,86.8180543 L76.3590477,86.8180543 C76.3590477,71.3190446 81.7840511,65.5045409 109.308068,65.5045409 L109.308068,65.5045409 C143.80159,65.5045409 179.842112,70.9305443 203.485627,74.4175465 L203.485627,74.4175465 L215.120134,11.247507 C200.772125,6.59000412 142.636589,0.773000483 109.691069,0.773000483 L109.691069,0.773000483 C41.4710259,0.773000483 -1.13686909e-13,20.1555126 -1.13686909e-13,85.2650533 L-1.13686909e-13,85.2650533 Z M595.733872,4.65200291 L595.733872,289.924181 L800,289.924181 L800,226.352141 L671.69892,226.352141 L671.69892,4.65200291 L595.733872,4.65200291 Z" id="path-9"></path>
        <path d="M259.687662,147.292592 C259.687662,272.47867 314.341196,294.570684 399.60925,294.570684 L399.60925,294.570684 C485.267303,294.570684 540.306338,271.70117 540.306338,146.506592 L540.306338,146.506592 C540.306338,21.3200133 486.047304,0 400.38775,0 L400.38775,0 C315.114197,0 259.687662,22.0890138 259.687662,147.292592 L259.687662,147.292592 Z M339.143212,157.754099 L339.143212,135.266585 C339.143212,81.3985509 352.32522,64.3440402 399.60925,64.3440402 L399.60925,64.3440402 C447.28778,64.3440402 460.851788,82.1715514 460.851788,136.048085 L460.851788,136.048085 L460.851788,158.522599 C460.851788,212.401633 448.05628,231.781645 400.38775,231.781645 L400.38775,231.781645 C353.098221,231.781645 339.143212,211.633132 339.143212,157.754099 L339.143212,157.754099 Z M-1.13686909e-13,85.2650533 C-1.13686909e-13,151.553095 18.2180114,163.566102 100.775063,178.293611 L100.775063,178.293611 C145.351591,186.432117 150.776594,187.986617 150.776594,206.977629 L150.776594,206.977629 C150.776594,226.749142 144.57009,230.615144 108.526568,230.615144 L108.526568,230.615144 C82.5570516,230.615144 22.0910138,223.25164 12.790008,220.928638 L12.790008,220.928638 L1.16700073,283.717177 C13.1815082,286.434679 57.7490361,293.795684 107.750567,293.795684 L107.750567,293.795684 C193.023621,293.795684 228.293143,272.09867 228.293143,207.75813 L228.293143,207.75813 C228.293143,139.532587 209.692131,130.232581 121.319576,114.347571 L121.319576,114.347571 C81.7840511,107.368067 76.3590477,106.198066 76.3590477,86.8180543 L76.3590477,86.8180543 C76.3590477,71.3190446 81.7840511,65.5045409 109.308068,65.5045409 L109.308068,65.5045409 C143.80159,65.5045409 179.842112,70.9305443 203.485627,74.4175465 L203.485627,74.4175465 L215.120134,11.247507 C200.772125,6.59000412 142.636589,0.773000483 109.691069,0.773000483 L109.691069,0.773000483 C41.4710259,0.773000483 -1.13686909e-13,20.1555126 -1.13686909e-13,85.2650533 L-1.13686909e-13,85.2650533 Z M595.733872,4.65200291 L595.733872,289.924181 L800,289.924181 L800,226.352141 L671.69892,226.352141 L671.69892,4.65200291 L595.733872,4.65200291 Z" id="path-11"></path>
        <path d="M259.687662,147.292592 C259.687662,272.47867 314.341196,294.570684 399.60925,294.570684 L399.60925,294.570684 C485.267303,294.570684 540.306338,271.70117 540.306338,146.506592 L540.306338,146.506592 C540.306338,21.3200133 486.047304,0 400.38775,0 L400.38775,0 C315.114197,0 259.687662,22.0890138 259.687662,147.292592 L259.687662,147.292592 Z M339.143212,157.754099 L339.143212,135.266585 C339.143212,81.3985509 352.32522,64.3440402 399.60925,64.3440402 L399.60925,64.3440402 C447.28778,64.3440402 460.851788,82.1715514 460.851788,136.048085 L460.851788,136.048085 L460.851788,158.522599 C460.851788,212.401633 448.05628,231.781645 400.38775,231.781645 L400.38775,231.781645 C353.098221,231.781645 339.143212,211.633132 339.143212,157.754099 L339.143212,157.754099 Z M-1.13686909e-13,85.2650533 C-1.13686909e-13,151.553095 18.2180114,163.566102 100.775063,178.293611 L100.775063,178.293611 C145.351591,186.432117 150.776594,187.986617 150.776594,206.977629 L150.776594,206.977629 C150.776594,226.749142 144.57009,230.615144 108.526568,230.615144 L108.526568,230.615144 C82.5570516,230.615144 22.0910138,223.25164 12.790008,220.928638 L12.790008,220.928638 L1.16700073,283.717177 C13.1815082,286.434679 57.7490361,293.795684 107.750567,293.795684 L107.750567,293.795684 C193.023621,293.795684 228.293143,272.09867 228.293143,207.75813 L228.293143,207.75813 C228.293143,139.532587 209.692131,130.232581 121.319576,114.347571 L121.319576,114.347571 C81.7840511,107.368067 76.3590477,106.198066 76.3590477,86.8180543 L76.3590477,86.8180543 C76.3590477,71.3190446 81.7840511,65.5045409 109.308068,65.5045409 L109.308068,65.5045409 C143.80159,65.5045409 179.842112,70.9305443 203.485627,74.4175465 L203.485627,74.4175465 L215.120134,11.247507 C200.772125,6.59000412 142.636589,0.773000483 109.691069,0.773000483 L109.691069,0.773000483 C41.4710259,0.773000483 -1.13686909e-13,20.1555126 -1.13686909e-13,85.2650533 L-1.13686909e-13,85.2650533 Z M595.733872,4.65200291 L595.733872,289.924181 L800,289.924181 L800,226.352141 L671.69892,226.352141 L671.69892,4.65200291 L595.733872,4.65200291 Z" id="path-13"></path>
        <path d="M259.687662,147.292592 C259.687662,272.47867 314.341196,294.570684 399.60925,294.570684 L399.60925,294.570684 C485.267303,294.570684 540.306338,271.70117 540.306338,146.506592 L540.306338,146.506592 C540.306338,21.3200133 486.047304,0 400.38775,0 L400.38775,0 C315.114197,0 259.687662,22.0890138 259.687662,147.292592 L259.687662,147.292592 Z M339.143212,157.754099 L339.143212,135.266585 C339.143212,81.3985509 352.32522,64.3440402 399.60925,64.3440402 L399.60925,64.3440402 C447.28778,64.3440402 460.851788,82.1715514 460.851788,136.048085 L460.851788,136.048085 L460.851788,158.522599 C460.851788,212.401633 448.05628,231.781645 400.38775,231.781645 L400.38775,231.781645 C353.098221,231.781645 339.143212,211.633132 339.143212,157.754099 L339.143212,157.754099 Z M-1.13686909e-13,85.2650533 C-1.13686909e-13,151.553095 18.2180114,163.566102 100.775063,178.293611 L100.775063,178.293611 C145.351591,186.432117 150.776594,187.986617 150.776594,206.977629 L150.776594,206.977629 C150.776594,226.749142 144.57009,230.615144 108.526568,230.615144 L108.526568,230.615144 C82.5570516,230.615144 22.0910138,223.25164 12.790008,220.928638 L12.790008,220.928638 L1.16700073,283.717177 C13.1815082,286.434679 57.7490361,293.795684 107.750567,293.795684 L107.750567,293.795684 C193.023621,293.795684 228.293143,272.09867 228.293143,207.75813 L228.293143,207.75813 C228.293143,139.532587 209.692131,130.232581 121.319576,114.347571 L121.319576,114.347571 C81.7840511,107.368067 76.3590477,106.198066 76.3590477,86.8180543 L76.3590477,86.8180543 C76.3590477,71.3190446 81.7840511,65.5045409 109.308068,65.5045409 L109.308068,65.5045409 C143.80159,65.5045409 179.842112,70.9305443 203.485627,74.4175465 L203.485627,74.4175465 L215.120134,11.247507 C200.772125,6.59000412 142.636589,0.773000483 109.691069,0.773000483 L109.691069,0.773000483 C41.4710259,0.773000483 -1.13686909e-13,20.1555126 -1.13686909e-13,85.2650533 L-1.13686909e-13,85.2650533 Z M595.733872,4.65200291 L595.733872,289.924181 L800,289.924181 L800,226.352141 L671.69892,226.352141 L671.69892,4.65200291 L595.733872,4.65200291 Z" id="path-15"></path>
        <path d="M259.687662,147.292592 C259.687662,272.47867 314.341196,294.570684 399.60925,294.570684 L399.60925,294.570684 C485.267303,294.570684 540.306338,271.70117 540.306338,146.506592 L540.306338,146.506592 C540.306338,21.3200133 486.047304,0 400.38775,0 L400.38775,0 C315.114197,0 259.687662,22.0890138 259.687662,147.292592 L259.687662,147.292592 Z M339.143212,157.754099 L339.143212,135.266585 C339.143212,81.3985509 352.32522,64.3440402 399.60925,64.3440402 L399.60925,64.3440402 C447.28778,64.3440402 460.851788,82.1715514 460.851788,136.048085 L460.851788,136.048085 L460.851788,158.522599 C460.851788,212.401633 448.05628,231.781645 400.38775,231.781645 L400.38775,231.781645 C353.098221,231.781645 339.143212,211.633132 339.143212,157.754099 L339.143212,157.754099 Z M-1.13686909e-13,85.2650533 C-1.13686909e-13,151.553095 18.2180114,163.566102 100.775063,178.293611 L100.775063,178.293611 C145.351591,186.432117 150.776594,187.986617 150.776594,206.977629 L150.776594,206.977629 C150.776594,226.749142 144.57009,230.615144 108.526568,230.615144 L108.526568,230.615144 C82.5570516,230.615144 22.0910138,223.25164 12.790008,220.928638 L12.790008,220.928638 L1.16700073,283.717177 C13.1815082,286.434679 57.7490361,293.795684 107.750567,293.795684 L107.750567,293.795684 C193.023621,293.795684 228.293143,272.09867 228.293143,207.75813 L228.293143,207.75813 C228.293143,139.532587 209.692131,130.232581 121.319576,114.347571 L121.319576,114.347571 C81.7840511,107.368067 76.3590477,106.198066 76.3590477,86.8180543 L76.3590477,86.8180543 C76.3590477,71.3190446 81.7840511,65.5045409 109.308068,65.5045409 L109.308068,65.5045409 C143.80159,65.5045409 179.842112,70.9305443 203.485627,74.4175465 L203.485627,74.4175465 L215.120134,11.247507 C200.772125,6.59000412 142.636589,0.773000483 109.691069,0.773000483 L109.691069,0.773000483 C41.4710259,0.773000483 -1.13686909e-13,20.1555126 -1.13686909e-13,85.2650533 L-1.13686909e-13,85.2650533 Z M595.733872,4.65200291 L595.733872,289.924181 L800,289.924181 L800,226.352141 L671.69892,226.352141 L671.69892,4.65200291 L595.733872,4.65200291 Z" id="path-17"></path>
        <path d="M259.687662,147.292592 C259.687662,272.47867 314.341196,294.570684 399.60925,294.570684 L399.60925,294.570684 C485.267303,294.570684 540.306338,271.70117 540.306338,146.506592 L540.306338,146.506592 C540.306338,21.3200133 486.047304,0 400.38775,0 L400.38775,0 C315.114197,0 259.687662,22.0890138 259.687662,147.292592 L259.687662,147.292592 Z M339.143212,157.754099 L339.143212,135.266585 C339.143212,81.3985509 352.32522,64.3440402 399.60925,64.3440402 L399.60925,64.3440402 C447.28778,64.3440402 460.851788,82.1715514 460.851788,136.048085 L460.851788,136.048085 L460.851788,158.522599 C460.851788,212.401633 448.05628,231.781645 400.38775,231.781645 L400.38775,231.781645 C353.098221,231.781645 339.143212,211.633132 339.143212,157.754099 L339.143212,157.754099 Z M-1.13686909e-13,85.2650533 C-1.13686909e-13,151.553095 18.2180114,163.566102 100.775063,178.293611 L100.775063,178.293611 C145.351591,186.432117 150.776594,187.986617 150.776594,206.977629 L150.776594,206.977629 C150.776594,226.749142 144.57009,230.615144 108.526568,230.615144 L108.526568,230.615144 C82.5570516,230.615144 22.0910138,223.25164 12.790008,220.928638 L12.790008,220.928638 L1.16700073,283.717177 C13.1815082,286.434679 57.7490361,293.795684 107.750567,293.795684 L107.750567,293.795684 C193.023621,293.795684 228.293143,272.09867 228.293143,207.75813 L228.293143,207.75813 C228.293143,139.532587 209.692131,130.232581 121.319576,114.347571 L121.319576,114.347571 C81.7840511,107.368067 76.3590477,106.198066 76.3590477,86.8180543 L76.3590477,86.8180543 C76.3590477,71.3190446 81.7840511,65.5045409 109.308068,65.5045409 L109.308068,65.5045409 C143.80159,65.5045409 179.842112,70.9305443 203.485627,74.4175465 L203.485627,74.4175465 L215.120134,11.247507 C200.772125,6.59000412 142.636589,0.773000483 109.691069,0.773000483 L109.691069,0.773000483 C41.4710259,0.773000483 -1.13686909e-13,20.1555126 -1.13686909e-13,85.2650533 L-1.13686909e-13,85.2650533 Z M595.733872,4.65200291 L595.733872,289.924181 L800,289.924181 L800,226.352141 L671.69892,226.352141 L671.69892,4.65200291 L595.733872,4.65200291 Z" id="path-19"></path>
        <path d="M259.687662,147.292592 C259.687662,272.47867 314.341196,294.570684 399.60925,294.570684 L399.60925,294.570684 C485.267303,294.570684 540.306338,271.70117 540.306338,146.506592 L540.306338,146.506592 C540.306338,21.3200133 486.047304,0 400.38775,0 L400.38775,0 C315.114197,0 259.687662,22.0890138 259.687662,147.292592 L259.687662,147.292592 Z M339.143212,157.754099 L339.143212,135.266585 C339.143212,81.3985509 352.32522,64.3440402 399.60925,64.3440402 L399.60925,64.3440402 C447.28778,64.3440402 460.851788,82.1715514 460.851788,136.048085 L460.851788,136.048085 L460.851788,158.522599 C460.851788,212.401633 448.05628,231.781645 400.38775,231.781645 L400.38775,231.781645 C353.098221,231.781645 339.143212,211.633132 339.143212,157.754099 L339.143212,157.754099 Z M-1.13686909e-13,85.2650533 C-1.13686909e-13,151.553095 18.2180114,163.566102 100.775063,178.293611 L100.775063,178.293611 C145.351591,186.432117 150.776594,187.986617 150.776594,206.977629 L150.776594,206.977629 C150.776594,226.749142 144.57009,230.615144 108.526568,230.615144 L108.526568,230.615144 C82.5570516,230.615144 22.0910138,223.25164 12.790008,220.928638 L12.790008,220.928638 L1.16700073,283.717177 C13.1815082,286.434679 57.7490361,293.795684 107.750567,293.795684 L107.750567,293.795684 C193.023621,293.795684 228.293143,272.09867 228.293143,207.75813 L228.293143,207.75813 C228.293143,139.532587 209.692131,130.232581 121.319576,114.347571 L121.319576,114.347571 C81.7840511,107.368067 76.3590477,106.198066 76.3590477,86.8180543 L76.3590477,86.8180543 C76.3590477,71.3190446 81.7840511,65.5045409 109.308068,65.5045409 L109.308068,65.5045409 C143.80159,65.5045409 179.842112,70.9305443 203.485627,74.4175465 L203.485627,74.4175465 L215.120134,11.247507 C200.772125,6.59000412 142.636589,0.773000483 109.691069,0.773000483 L109.691069,0.773000483 C41.4710259,0.773000483 -1.13686909e-13,20.1555126 -1.13686909e-13,85.2650533 L-1.13686909e-13,85.2650533 Z M595.733872,4.65200291 L595.733872,289.924181 L800,289.924181 L800,226.352141 L671.69892,226.352141 L671.69892,4.65200291 L595.733872,4.65200291 Z" id="path-21"></path>
        <path d="M259.687662,147.292592 C259.687662,272.47867 314.341196,294.570684 399.60925,294.570684 L399.60925,294.570684 C485.267303,294.570684 540.306338,271.70117 540.306338,146.506592 L540.306338,146.506592 C540.306338,21.3200133 486.047304,0 400.38775,0 L400.38775,0 C315.114197,0 259.687662,22.0890138 259.687662,147.292592 L259.687662,147.292592 Z M339.143212,157.754099 L339.143212,135.266585 C339.143212,81.3985509 352.32522,64.3440402 399.60925,64.3440402 L399.60925,64.3440402 C447.28778,64.3440402 460.851788,82.1715514 460.851788,136.048085 L460.851788,136.048085 L460.851788,158.522599 C460.851788,212.401633 448.05628,231.781645 400.38775,231.781645 L400.38775,231.781645 C353.098221,231.781645 339.143212,211.633132 339.143212,157.754099 L339.143212,157.754099 Z M-1.13686909e-13,85.2650533 C-1.13686909e-13,151.553095 18.2180114,163.566102 100.775063,178.293611 L100.775063,178.293611 C145.351591,186.432117 150.776594,187.986617 150.776594,206.977629 L150.776594,206.977629 C150.776594,226.749142 144.57009,230.615144 108.526568,230.615144 L108.526568,230.615144 C82.5570516,230.615144 22.0910138,223.25164 12.790008,220.928638 L12.790008,220.928638 L1.16700073,283.717177 C13.1815082,286.434679 57.7490361,293.795684 107.750567,293.795684 L107.750567,293.795684 C193.023621,293.795684 228.293143,272.09867 228.293143,207.75813 L228.293143,207.75813 C228.293143,139.532587 209.692131,130.232581 121.319576,114.347571 L121.319576,114.347571 C81.7840511,107.368067 76.3590477,106.198066 76.3590477,86.8180543 L76.3590477,86.8180543 C76.3590477,71.3190446 81.7840511,65.5045409 109.308068,65.5045409 L109.308068,65.5045409 C143.80159,65.5045409 179.842112,70.9305443 203.485627,74.4175465 L203.485627,74.4175465 L215.120134,11.247507 C200.772125,6.59000412 142.636589,0.773000483 109.691069,0.773000483 L109.691069,0.773000483 C41.4710259,0.773000483 -1.13686909e-13,20.1555126 -1.13686909e-13,85.2650533 L-1.13686909e-13,85.2650533 Z M595.733872,4.65200291 L595.733872,289.924181 L800,289.924181 L800,226.352141 L671.69892,226.352141 L671.69892,4.65200291 L595.733872,4.65200291 Z" id="path-23"></path>
        <path d="M259.687662,147.292592 C259.687662,272.47867 314.341196,294.570684 399.60925,294.570684 L399.60925,294.570684 C485.267303,294.570684 540.306338,271.70117 540.306338,146.506592 L540.306338,146.506592 C540.306338,21.3200133 486.047304,0 400.38775,0 L400.38775,0 C315.114197,0 259.687662,22.0890138 259.687662,147.292592 L259.687662,147.292592 Z M339.143212,157.754099 L339.143212,135.266585 C339.143212,81.3985509 352.32522,64.3440402 399.60925,64.3440402 L399.60925,64.3440402 C447.28778,64.3440402 460.851788,82.1715514 460.851788,136.048085 L460.851788,136.048085 L460.851788,158.522599 C460.851788,212.401633 448.05628,231.781645 400.38775,231.781645 L400.38775,231.781645 C353.098221,231.781645 339.143212,211.633132 339.143212,157.754099 L339.143212,157.754099 Z M-1.13686909e-13,85.2650533 C-1.13686909e-13,151.553095 18.2180114,163.566102 100.775063,178.293611 L100.775063,178.293611 C145.351591,186.432117 150.776594,187.986617 150.776594,206.977629 L150.776594,206.977629 C150.776594,226.749142 144.57009,230.615144 108.526568,230.615144 L108.526568,230.615144 C82.5570516,230.615144 22.0910138,223.25164 12.790008,220.928638 L12.790008,220.928638 L1.16700073,283.717177 C13.1815082,286.434679 57.7490361,293.795684 107.750567,293.795684 L107.750567,293.795684 C193.023621,293.795684 228.293143,272.09867 228.293143,207.75813 L228.293143,207.75813 C228.293143,139.532587 209.692131,130.232581 121.319576,114.347571 L121.319576,114.347571 C81.7840511,107.368067 76.3590477,106.198066 76.3590477,86.8180543 L76.3590477,86.8180543 C76.3590477,71.3190446 81.7840511,65.5045409 109.308068,65.5045409 L109.308068,65.5045409 C143.80159,65.5045409 179.842112,70.9305443 203.485627,74.4175465 L203.485627,74.4175465 L215.120134,11.247507 C200.772125,6.59000412 142.636589,0.773000483 109.691069,0.773000483 L109.691069,0.773000483 C41.4710259,0.773000483 -1.13686909e-13,20.1555126 -1.13686909e-13,85.2650533 L-1.13686909e-13,85.2650533 Z M595.733872,4.65200291 L595.733872,289.924181 L800,289.924181 L800,226.352141 L671.69892,226.352141 L671.69892,4.65200291 L595.733872,4.65200291 Z" id="path-25"></path>
        <path d="M259.687662,147.292592 C259.687662,272.47867 314.341196,294.570684 399.60925,294.570684 L399.60925,294.570684 C485.267303,294.570684 540.306338,271.70117 540.306338,146.506592 L540.306338,146.506592 C540.306338,21.3200133 486.047304,0 400.38775,0 L400.38775,0 C315.114197,0 259.687662,22.0890138 259.687662,147.292592 L259.687662,147.292592 Z M339.143212,157.754099 L339.143212,135.266585 C339.143212,81.3985509 352.32522,64.3440402 399.60925,64.3440402 L399.60925,64.3440402 C447.28778,64.3440402 460.851788,82.1715514 460.851788,136.048085 L460.851788,136.048085 L460.851788,158.522599 C460.851788,212.401633 448.05628,231.781645 400.38775,231.781645 L400.38775,231.781645 C353.098221,231.781645 339.143212,211.633132 339.143212,157.754099 L339.143212,157.754099 Z M-1.13686909e-13,85.2650533 C-1.13686909e-13,151.553095 18.2180114,163.566102 100.775063,178.293611 L100.775063,178.293611 C145.351591,186.432117 150.776594,187.986617 150.776594,206.977629 L150.776594,206.977629 C150.776594,226.749142 144.57009,230.615144 108.526568,230.615144 L108.526568,230.615144 C82.5570516,230.615144 22.0910138,223.25164 12.790008,220.928638 L12.790008,220.928638 L1.16700073,283.717177 C13.1815082,286.434679 57.7490361,293.795684 107.750567,293.795684 L107.750567,293.795684 C193.023621,293.795684 228.293143,272.09867 228.293143,207.75813 L228.293143,207.75813 C228.293143,139.532587 209.692131,130.232581 121.319576,114.347571 L121.319576,114.347571 C81.7840511,107.368067 76.3590477,106.198066 76.3590477,86.8180543 L76.3590477,86.8180543 C76.3590477,71.3190446 81.7840511,65.5045409 109.308068,65.5045409 L109.308068,65.5045409 C143.80159,65.5045409 179.842112,70.9305443 203.485627,74.4175465 L203.485627,74.4175465 L215.120134,11.247507 C200.772125,6.59000412 142.636589,0.773000483 109.691069,0.773000483 L109.691069,0.773000483 C41.4710259,0.773000483 -1.13686909e-13,20.1555126 -1.13686909e-13,85.2650533 L-1.13686909e-13,85.2650533 Z M595.733872,4.65200291 L595.733872,289.924181 L800,289.924181 L800,226.352141 L671.69892,226.352141 L671.69892,4.65200291 L595.733872,4.65200291 Z" id="path-27"></path>
        <path d="M259.687662,147.292592 C259.687662,272.47867 314.341196,294.570684 399.60925,294.570684 L399.60925,294.570684 C485.267303,294.570684 540.306338,271.70117 540.306338,146.506592 L540.306338,146.506592 C540.306338,21.3200133 486.047304,0 400.38775,0 L400.38775,0 C315.114197,0 259.687662,22.0890138 259.687662,147.292592 L259.687662,147.292592 Z M339.143212,157.754099 L339.143212,135.266585 C339.143212,81.3985509 352.32522,64.3440402 399.60925,64.3440402 L399.60925,64.3440402 C447.28778,64.3440402 460.851788,82.1715514 460.851788,136.048085 L460.851788,136.048085 L460.851788,158.522599 C460.851788,212.401633 448.05628,231.781645 400.38775,231.781645 L400.38775,231.781645 C353.098221,231.781645 339.143212,211.633132 339.143212,157.754099 L339.143212,157.754099 Z M-1.13686909e-13,85.2650533 C-1.13686909e-13,151.553095 18.2180114,163.566102 100.775063,178.293611 L100.775063,178.293611 C145.351591,186.432117 150.776594,187.986617 150.776594,206.977629 L150.776594,206.977629 C150.776594,226.749142 144.57009,230.615144 108.526568,230.615144 L108.526568,230.615144 C82.5570516,230.615144 22.0910138,223.25164 12.790008,220.928638 L12.790008,220.928638 L1.16700073,283.717177 C13.1815082,286.434679 57.7490361,293.795684 107.750567,293.795684 L107.750567,293.795684 C193.023621,293.795684 228.293143,272.09867 228.293143,207.75813 L228.293143,207.75813 C228.293143,139.532587 209.692131,130.232581 121.319576,114.347571 L121.319576,114.347571 C81.7840511,107.368067 76.3590477,106.198066 76.3590477,86.8180543 L76.3590477,86.8180543 C76.3590477,71.3190446 81.7840511,65.5045409 109.308068,65.5045409 L109.308068,65.5045409 C143.80159,65.5045409 179.842112,70.9305443 203.485627,74.4175465 L203.485627,74.4175465 L215.120134,11.247507 C200.772125,6.59000412 142.636589,0.773000483 109.691069,0.773000483 L109.691069,0.773000483 C41.4710259,0.773000483 -1.13686909e-13,20.1555126 -1.13686909e-13,85.2650533 L-1.13686909e-13,85.2650533 Z M595.733872,4.65200291 L595.733872,289.924181 L800,289.924181 L800,226.352141 L671.69892,226.352141 L671.69892,4.65200291 L595.733872,4.65200291 Z" id="path-29"></path>
        <path d="M259.687662,147.292592 C259.687662,272.47867 314.341196,294.570684 399.60925,294.570684 L399.60925,294.570684 C485.267303,294.570684 540.306338,271.70117 540.306338,146.506592 L540.306338,146.506592 C540.306338,21.3200133 486.047304,0 400.38775,0 L400.38775,0 C315.114197,0 259.687662,22.0890138 259.687662,147.292592 L259.687662,147.292592 Z M339.143212,157.754099 L339.143212,135.266585 C339.143212,81.3985509 352.32522,64.3440402 399.60925,64.3440402 L399.60925,64.3440402 C447.28778,64.3440402 460.851788,82.1715514 460.851788,136.048085 L460.851788,136.048085 L460.851788,158.522599 C460.851788,212.401633 448.05628,231.781645 400.38775,231.781645 L400.38775,231.781645 C353.098221,231.781645 339.143212,211.633132 339.143212,157.754099 L339.143212,157.754099 Z M-1.13686909e-13,85.2650533 C-1.13686909e-13,151.553095 18.2180114,163.566102 100.775063,178.293611 L100.775063,178.293611 C145.351591,186.432117 150.776594,187.986617 150.776594,206.977629 L150.776594,206.977629 C150.776594,226.749142 144.57009,230.615144 108.526568,230.615144 L108.526568,230.615144 C82.5570516,230.615144 22.0910138,223.25164 12.790008,220.928638 L12.790008,220.928638 L1.16700073,283.717177 C13.1815082,286.434679 57.7490361,293.795684 107.750567,293.795684 L107.750567,293.795684 C193.023621,293.795684 228.293143,272.09867 228.293143,207.75813 L228.293143,207.75813 C228.293143,139.532587 209.692131,130.232581 121.319576,114.347571 L121.319576,114.347571 C81.7840511,107.368067 76.3590477,106.198066 76.3590477,86.8180543 L76.3590477,86.8180543 C76.3590477,71.3190446 81.7840511,65.5045409 109.308068,65.5045409 L109.308068,65.5045409 C143.80159,65.5045409 179.842112,70.9305443 203.485627,74.4175465 L203.485627,74.4175465 L215.120134,11.247507 C200.772125,6.59000412 142.636589,0.773000483 109.691069,0.773000483 L109.691069,0.773000483 C41.4710259,0.773000483 -1.13686909e-13,20.1555126 -1.13686909e-13,85.2650533 L-1.13686909e-13,85.2650533 Z M595.733872,4.65200291 L595.733872,289.924181 L800,289.924181 L800,226.352141 L671.69892,226.352141 L671.69892,4.65200291 L595.733872,4.65200291 Z" id="path-31"></path>
        <path d="M259.687662,147.292592 C259.687662,272.47867 314.341196,294.570684 399.60925,294.570684 L399.60925,294.570684 C485.267303,294.570684 540.306338,271.70117 540.306338,146.506592 L540.306338,146.506592 C540.306338,21.3200133 486.047304,0 400.38775,0 L400.38775,0 C315.114197,0 259.687662,22.0890138 259.687662,147.292592 L259.687662,147.292592 Z M339.143212,157.754099 L339.143212,135.266585 C339.143212,81.3985509 352.32522,64.3440402 399.60925,64.3440402 L399.60925,64.3440402 C447.28778,64.3440402 460.851788,82.1715514 460.851788,136.048085 L460.851788,136.048085 L460.851788,158.522599 C460.851788,212.401633 448.05628,231.781645 400.38775,231.781645 L400.38775,231.781645 C353.098221,231.781645 339.143212,211.633132 339.143212,157.754099 L339.143212,157.754099 Z M-1.13686909e-13,85.2650533 C-1.13686909e-13,151.553095 18.2180114,163.566102 100.775063,178.293611 L100.775063,178.293611 C145.351591,186.432117 150.776594,187.986617 150.776594,206.977629 L150.776594,206.977629 C150.776594,226.749142 144.57009,230.615144 108.526568,230.615144 L108.526568,230.615144 C82.5570516,230.615144 22.0910138,223.25164 12.790008,220.928638 L12.790008,220.928638 L1.16700073,283.717177 C13.1815082,286.434679 57.7490361,293.795684 107.750567,293.795684 L107.750567,293.795684 C193.023621,293.795684 228.293143,272.09867 228.293143,207.75813 L228.293143,207.75813 C228.293143,139.532587 209.692131,130.232581 121.319576,114.347571 L121.319576,114.347571 C81.7840511,107.368067 76.3590477,106.198066 76.3590477,86.8180543 L76.3590477,86.8180543 C76.3590477,71.3190446 81.7840511,65.5045409 109.308068,65.5045409 L109.308068,65.5045409 C143.80159,65.5045409 179.842112,70.9305443 203.485627,74.4175465 L203.485627,74.4175465 L215.120134,11.247507 C200.772125,6.59000412 142.636589,0.773000483 109.691069,0.773000483 L109.691069,0.773000483 C41.4710259,0.773000483 -1.13686909e-13,20.1555126 -1.13686909e-13,85.2650533 L-1.13686909e-13,85.2650533 Z M595.733872,4.65200291 L595.733872,289.924181 L800,289.924181 L800,226.352141 L671.69892,226.352141 L671.69892,4.65200291 L595.733872,4.65200291 Z" id="path-33"></path>
        <path d="M259.687662,147.292592 C259.687662,272.47867 314.341196,294.570684 399.60925,294.570684 L399.60925,294.570684 C485.267303,294.570684 540.306338,271.70117 540.306338,146.506592 L540.306338,146.506592 C540.306338,21.3200133 486.047304,0 400.38775,0 L400.38775,0 C315.114197,0 259.687662,22.0890138 259.687662,147.292592 L259.687662,147.292592 Z M339.143212,157.754099 L339.143212,135.266585 C339.143212,81.3985509 352.32522,64.3440402 399.60925,64.3440402 L399.60925,64.3440402 C447.28778,64.3440402 460.851788,82.1715514 460.851788,136.048085 L460.851788,136.048085 L460.851788,158.522599 C460.851788,212.401633 448.05628,231.781645 400.38775,231.781645 L400.38775,231.781645 C353.098221,231.781645 339.143212,211.633132 339.143212,157.754099 L339.143212,157.754099 Z M-1.13686909e-13,85.2650533 C-1.13686909e-13,151.553095 18.2180114,163.566102 100.775063,178.293611 L100.775063,178.293611 C145.351591,186.432117 150.776594,187.986617 150.776594,206.977629 L150.776594,206.977629 C150.776594,226.749142 144.57009,230.615144 108.526568,230.615144 L108.526568,230.615144 C82.5570516,230.615144 22.0910138,223.25164 12.790008,220.928638 L12.790008,220.928638 L1.16700073,283.717177 C13.1815082,286.434679 57.7490361,293.795684 107.750567,293.795684 L107.750567,293.795684 C193.023621,293.795684 228.293143,272.09867 228.293143,207.75813 L228.293143,207.75813 C228.293143,139.532587 209.692131,130.232581 121.319576,114.347571 L121.319576,114.347571 C81.7840511,107.368067 76.3590477,106.198066 76.3590477,86.8180543 L76.3590477,86.8180543 C76.3590477,71.3190446 81.7840511,65.5045409 109.308068,65.5045409 L109.308068,65.5045409 C143.80159,65.5045409 179.842112,70.9305443 203.485627,74.4175465 L203.485627,74.4175465 L215.120134,11.247507 C200.772125,6.59000412 142.636589,0.773000483 109.691069,0.773000483 L109.691069,0.773000483 C41.4710259,0.773000483 -1.13686909e-13,20.1555126 -1.13686909e-13,85.2650533 L-1.13686909e-13,85.2650533 Z M595.733872,4.65200291 L595.733872,289.924181 L800,289.924181 L800,226.352141 L671.69892,226.352141 L671.69892,4.65200291 L595.733872,4.65200291 Z" id="path-35"></path>
        <path d="M259.687662,147.292592 C259.687662,272.47867 314.341196,294.570684 399.60925,294.570684 L399.60925,294.570684 C485.267303,294.570684 540.306338,271.70117 540.306338,146.506592 L540.306338,146.506592 C540.306338,21.3200133 486.047304,0 400.38775,0 L400.38775,0 C315.114197,0 259.687662,22.0890138 259.687662,147.292592 L259.687662,147.292592 Z M339.143212,157.754099 L339.143212,135.266585 C339.143212,81.3985509 352.32522,64.3440402 399.60925,64.3440402 L399.60925,64.3440402 C447.28778,64.3440402 460.851788,82.1715514 460.851788,136.048085 L460.851788,136.048085 L460.851788,158.522599 C460.851788,212.401633 448.05628,231.781645 400.38775,231.781645 L400.38775,231.781645 C353.098221,231.781645 339.143212,211.633132 339.143212,157.754099 L339.143212,157.754099 Z M-1.13686909e-13,85.2650533 C-1.13686909e-13,151.553095 18.2180114,163.566102 100.775063,178.293611 L100.775063,178.293611 C145.351591,186.432117 150.776594,187.986617 150.776594,206.977629 L150.776594,206.977629 C150.776594,226.749142 144.57009,230.615144 108.526568,230.615144 L108.526568,230.615144 C82.5570516,230.615144 22.0910138,223.25164 12.790008,220.928638 L12.790008,220.928638 L1.16700073,283.717177 C13.1815082,286.434679 57.7490361,293.795684 107.750567,293.795684 L107.750567,293.795684 C193.023621,293.795684 228.293143,272.09867 228.293143,207.75813 L228.293143,207.75813 C228.293143,139.532587 209.692131,130.232581 121.319576,114.347571 L121.319576,114.347571 C81.7840511,107.368067 76.3590477,106.198066 76.3590477,86.8180543 L76.3590477,86.8180543 C76.3590477,71.3190446 81.7840511,65.5045409 109.308068,65.5045409 L109.308068,65.5045409 C143.80159,65.5045409 179.842112,70.9305443 203.485627,74.4175465 L203.485627,74.4175465 L215.120134,11.247507 C200.772125,6.59000412 142.636589,0.773000483 109.691069,0.773000483 L109.691069,0.773000483 C41.4710259,0.773000483 -1.13686909e-13,20.1555126 -1.13686909e-13,85.2650533 L-1.13686909e-13,85.2650533 Z M595.733872,4.65200291 L595.733872,289.924181 L800,289.924181 L800,226.352141 L671.69892,226.352141 L671.69892,4.65200291 L595.733872,4.65200291 Z" id="path-37"></path>
    </defs>
    <g id="SOL-Logo-Kleur" stroke="none" stroke-width="1" fill="none" fill-rule="evenodd">
        <rect fill="#FFFFFF" x="0" y="0" width="800" height="295"></rect>
        <g id="Group-58" transform="translate(0.000000, 0.000000)">
            <g id="Group-3">
                <mask id="mask-2" fill="white">
                    <use xlink:href="#path-1"></use>
                </mask>
                <g id="Clip-2"></g>
                <polygon id="Fill-1" fill="#5DB7E7" mask="url(#mask-2)" points="800.0546 -0.0145000091 800.0001 -1.27769173e-18 507.178917 292.821183 907.182667 400.00325 907.236667 399.98875"></polygon>
            </g>
            <g id="Group-6">
                <mask id="mask-4" fill="white">
                    <use xlink:href="#path-3"></use>
                </mask>
                <g id="Clip-5"></g>
                <polygon id="Fill-4" fill="#5C9000" mask="url(#mask-4)" points="507.178817 292.820933 399.99975 400 507.181317 507.182567 907.182567 400.003"></polygon>
            </g>
            <g id="Group-9">
                <mask id="mask-6" fill="white">
                    <use xlink:href="#path-5"></use>
                </mask>
                <g id="Clip-8"></g>
                <polygon id="Fill-7" fill="#C390C0" mask="url(#mask-6)" points="507.218617 -292.864883 507.175117 -292.821383 399.99555 107.180867 800.0003 -0.000200000125 800.0398 -0.0397000248"></polygon>
            </g>
            <g id="Group-12">
                <mask id="mask-8" fill="white">
                    <use xlink:href="#path-7"></use>
                </mask>
                <g id="Clip-11"></g>
                <polygon id="Fill-10" fill="#4767AE" mask="url(#mask-8)" points="399.9955 107.180767 360.765475 253.588858 507.178567 292.820883 800.00025 0.000200000125"></polygon>
            </g>
            <g id="Group-15">
                <mask id="mask-10" fill="white">
                    <use xlink:href="#path-9"></use>
                </mask>
                <g id="Clip-14"></g>
                <polygon id="Fill-13" fill="#465100" mask="url(#mask-10)" points="360.765625 253.589008 338.116111 338.116561 399.99965 400.0001 507.178717 292.821033"></polygon>
            </g>
            <g id="Group-18">
                <mask id="mask-12" fill="white">
                    <use xlink:href="#path-11"></use>
                </mask>
                <g id="Clip-17"></g>
                <polygon id="Fill-16" fill="#C3666C" mask="url(#mask-12)" points="214.354234 -0.000200000125 253.585758 146.410892 399.99535 107.180867 507.174917 -292.821383"></polygon>
            </g>
            <g id="Group-21">
                <mask id="mask-14" fill="white">
                    <use xlink:href="#path-13"></use>
                </mask>
                <g id="Clip-20"></g>
                <polygon id="Fill-19" fill="#474962" mask="url(#mask-14)" points="253.585508 146.410992 276.235023 230.938544 360.765575 253.589058 399.9956 107.180967"></polygon>
            </g>
            <g id="Group-24">
                <mask id="mask-16" fill="white">
                    <use xlink:href="#path-15"></use>
                </mask>
                <g id="Clip-23"></g>
                <polygon id="Fill-22" fill="#463900" mask="url(#mask-16)" points="276.234823 230.938744 292.814333 292.814283 338.116361 338.116311 360.765875 253.588758"></polygon>
            </g>
            <g id="Group-27">
                <mask id="mask-18" fill="white">
                    <use xlink:href="#path-17"></use>
                </mask>
                <g id="Clip-26"></g>
                <polygon id="Fill-25" fill="#433000" mask="url(#mask-18)" points="292.814533 292.814233 321.534551 399.9993 338.116561 338.116261"></polygon>
            </g>
            <g id="Group-30">
                <mask id="mask-20" fill="white">
                    <use xlink:href="#path-19"></use>
                </mask>
                <g id="Clip-29"></g>
                <polygon id="Fill-28" fill="#ECA952" mask="url(#mask-20)" points="214.360634 -0.000200000125 107.178067 -400.00545 -0.000500000313 -0.00870000544 107.183567 107.176367"></polygon>
            </g>
            <g id="Group-33">
                <mask id="mask-22" fill="white">
                    <use xlink:href="#path-21"></use>
                </mask>
                <g id="Clip-32"></g>
                <polygon id="Fill-31" fill="#DE8E4D" mask="url(#mask-22)" points="-0.00680000425 -0.00875000547 -39.2388245 146.406842 45.2957283 169.057856 107.177267 107.176317"></polygon>
            </g>
            <g id="Group-36">
                <mask id="mask-24" fill="white">
                    <use xlink:href="#path-23"></use>
                </mask>
                <g id="Clip-35"></g>
                <polygon id="Fill-34" fill="#DC6F00" mask="url(#mask-24)" points="-61.8900887 230.942144 -0.00655000409 214.360634 45.2959783 169.058106 -39.2390745 146.406592"></polygon>
            </g>
            <g id="Group-39">
                <mask id="mask-26" fill="white">
                    <use xlink:href="#path-25"></use>
                </mask>
                <g id="Clip-38"></g>
                <polygon id="Fill-37" fill="#B45F3D" mask="url(#mask-26)" points="214.354234 -0.000200000125 107.177167 107.176367 169.060206 169.059406 253.585758 146.410892"></polygon>
            </g>
            <g id="Group-42">
                <mask id="mask-28" fill="white">
                    <use xlink:href="#path-27"></use>
                </mask>
                <g id="Clip-41"></g>
                <polygon id="Fill-40" fill="#AA503A" mask="url(#mask-28)" points="169.060256 169.059356 107.177217 107.176317 45.2956783 169.057856 107.180217 185.639866"></polygon>
            </g>
            <g id="Group-45">
                <mask id="mask-30" fill="white">
                    <use xlink:href="#path-29"></use>
                </mask>
                <g id="Clip-44"></g>
                <polygon id="Fill-43" fill="#A83F00" mask="url(#mask-30)" points="45.2958783 169.058006 -0.00615000384 214.360534 107.179917 185.640016"></polygon>
            </g>
            <g id="Group-48">
                <mask id="mask-32" fill="white">
                    <use xlink:href="#path-31"></use>
                </mask>
                <g id="Clip-47"></g>
                <polygon id="Fill-46" fill="#424438" mask="url(#mask-32)" points="253.585508 146.410992 169.060456 169.059506 214.359484 214.359034 276.235023 230.938544"></polygon>
            </g>
            <g id="Group-51">
                <mask id="mask-34" fill="white">
                    <use xlink:href="#path-33"></use>
                </mask>
                <g id="Clip-50"></g>
                <polygon id="Fill-49" fill="#3E3A34" mask="url(#mask-34)" points="169.060256 169.059356 107.180217 185.639866 214.359784 214.359384"></polygon>
            </g>
            <g id="Group-54">
                <mask id="mask-36" fill="white">
                    <use xlink:href="#path-35"></use>
                </mask>
                <g id="Clip-53"></g>
                <polygon id="Fill-52" fill="#413500" mask="url(#mask-36)" points="276.234823 230.938744 214.359784 214.359234 292.814333 292.814283"></polygon>
            </g>
            <g id="Group-57">
                <mask id="mask-38" fill="white">
                    <use xlink:href="#path-37"></use>
                </mask>
                <g id="Clip-56"></g>
                <polygon id="Fill-55" fill="#3E2D00" mask="url(#mask-38)" points="292.814483 292.814183 214.359434 214.359134 107.179867 185.640116 -0.00620000388 214.360634 -78.471749 292.825683 -107.189767 400.00275 -78.472249 507.180317 -0.0117000073 585.639866 107.178867 614.362384 214.354934 585.644366 292.814983 507.184817 321.535001 399.99925"></polygon>
            </g>
        </g>
    </g>
</svg>